#!OML:ASF H:\Male1\Project 1\Capture day 1\Session 1\Male1.ASF
:FULLY-SPECIFIED
:DEGREES
304
root -2.51358 15.16 -0.520784 172.059 77.4507 -187.666
lowerback 5.57399 2.61502 2.62053
upperback 4.98456 3.74707 -0.546215
thorax 2.22388 2.03153 -2.15
lowerneck -8.06953 0.457609 5.33472
upperneck 15.4384 0.327469 -1.62339
head 6.0153 0.42736 -1.36024
rclavicle -1.48095e-014 -1.98785e-015
rhumerus -28.7195 5.81304 -91.1369
rradius 24.3813
rwrist -11.792
rhand -13.9146 1.21553
rfingers 7.12502
rthumb 12.2114 -28.408
lclavicle -1.48095e-014 -1.98785e-015
lhumerus -34.4278 19.5908 71.8061
lradius 17.6356
lwrist -21.3195
lhand -14.6545 10.6865
lfingers 7.12502
lthumb 11.498 40.3511
rfemur 8.45791 14.1915 31.9613
rtibia 12.7255
rfoot -24.4541 -21.7466
rtoes -31.295
lfemur -28.9211 -11.0358 -21.7847
ltibia 42.9529
lfoot -14.1536 18.5393
ltoes -17.6094
305
root -2.36877 15.1756 -0.547166 173.554 77.8705 -186.016
lowerback 5.71607 2.583 2.86344
upperback 4.9838 3.71784 -0.52279
thorax 2.15737 2.02313 -2.2681
lowerneck -7.85749 0.465089 5.51158
upperneck 15.1009 0.32332 -1.66329
head 5.873 0.424856 -1.40117
rclavicle 6.21202e-015 3.97569e-016
rhumerus -28.9482 5.72946 -91.4234
rradius 24.347
rwrist -11.2023
rhand -13.4 0.616727
rfingers 7.12502
rthumb 12.7076 -28.9766
lclavicle 6.21202e-015 3.97569e-016
lhumerus -34.68 19.138 71.7952
lradius 17.9897
lwrist -19.8862
lhand -15.1454 10.9496
lfingers 7.12502
lthumb 11.0245 40.6401
rfemur 11.3161 13.4681 32.3549
rtibia 8.55223
rfoot -22.5966 -20.7378
rtoes -29.9856
lfemur -29.083 -11.1065 -21.5497
ltibia 40.1269
lfoot -14.2361 19.6516
ltoes -18.6785
306
root -2.21533 15.1922 -0.560751 172.762 78.554 -186.733
lowerback 5.72453 2.7077 2.366
upperback 4.99633 3.86586 -0.58716
thorax 2.14457 2.08391 -2.06217
lowerneck -7.66894 0.427169 5.58496
upperneck 14.826 0.262418 -1.63245
head 5.75236 0.395673 -1.40693
rclavicle 3.70733e-014 -1.15295e-014
rhumerus -29.2633 5.44617 -91.6625
rradius 24.3201
rwrist -10.5098
rhand -13.179 0.334835
rfingers 7.12502
rthumb 12.9207 -29.2452
lclavicle 3.70733e-014 -1.15295e-014
lhumerus -34.9042 18.6853 71.859
lradius 18.5556
lwrist -18.5357
lhand -15.4917 11.2992
lfingers 7.12502
lthumb 10.6905 41.0072
rfemur 16.446 13.0691 32.2315
rtibia -5.88403e-014
rfoot -17.971 -19.7704
rtoes -29.6059
lfemur -29.1455 -11.074 -21.6703
ltibia 37.6046
lfoot -15.9016 19.7758
ltoes -11.1483
307
root -2.07045 15.2088 -0.587007 173.544 79.4576 -186.004
lowerback 5.64397 2.88084 2.39052
upperback 4.93304 4.09172 -0.647736
thorax 2.14264 2.19583 -2.14218
lowerneck -7.53445 0.382831 5.64859
upperneck 14.6047 0.182469 -1.53361
head 5.65755 0.362487 -1.39104
rclavicle 3.28989e-014 -6.36111e-015
rhumerus -29.5763 4.95768 -91.7616
rradius 24.3218
rwrist -9.62053
rhand -12.7602 0.533894
rfingers 7.12502
rthumb 13.3243 -29.0201
lclavicle 3.28989e-014 -6.36111e-015
lhumerus -35.0217 18.2149 71.9959
lradius 19.1738
lwrist -17.211
lhand -15.9094 11.4388
lfingers 7.12502
lthumb 10.2876 41.1672
rfemur 16.8865 12.8966 32.3491
rtibia -1.43125e-014
rfoot -17.463 -18.8424
rtoes -30.1628
lfemur -29.3835 -11.0794 -21.4574
ltibia 35.5907
lfoot -16.6046 20.3299
ltoes -9.00933
308
root -1.91446 15.2108 -0.61036 175.144 79.7392 -184.191
lowerback 5.57685 2.77674 2.35674
upperback 4.99996 3.9512 -0.570382
thorax 2.23323 2.12581 -2.03355
lowerneck -7.38108 0.429056 5.74155
upperneck 14.225 0.243773 -1.61345
head 5.51511 0.38149 -1.42587
rclavicle 1.72943e-014 -2.5842e-015
rhumerus -29.8846 5.04819 -91.898
rradius 24.5036
rwrist -9.42827
rhand -12.8457 0.849841
rfingers 7.12502
rthumb 13.242 -28.7095
lclavicle 1.72943e-014 -2.5842e-015
lhumerus -35.0131 17.623 72.4415
lradius 19.7891
lwrist -15.2561
lhand -16.5118 11.0732
lfingers 7.12502
lthumb 9.70641 40.8296
rfemur 17.7027 12.035 32.6682
rtibia 1.27222e-014
rfoot -17.4092 -17.8235
rtoes -30.3287
lfemur -29.3553 -11.7172 -21.1931
ltibia 34.1486
lfoot -18.316 20.7784
ltoes -4.2595
309
root -1.7594 15.2079 -0.634478 178.724 80.3292 -180.389
lowerback 5.55844 2.76318 2.67368
upperback 5.02346 3.94227 -0.436169
thorax 2.2802 2.12906 -2.06951
lowerneck -7.4167 0.51849 5.67566
upperneck 14.1518 0.358533 -1.55431
head 5.50269 0.434882 -1.38841
rclavicle 4.5795e-014 -7.55382e-015
rhumerus -30.3816 5.66683 -92.267
rradius 24.8897
rwrist -10.1116
rhand -13.3681 1.25148
rfingers 7.12502
rthumb 12.7383 -28.34
lclavicle 4.5795e-014 -7.55382e-015
lhumerus -34.8641 16.9383 72.9565
lradius 20.3534
lwrist -13.3621
lhand -16.8834 10.9404
lfingers 7.12502
lthumb 9.34784 40.7131
rfemur 18.4452 11.4743 33.3208
rtibia 1.27222e-014
rfoot -17.2738 -16.814
rtoes -29.9417
lfemur -29.4671 -12.8069 -20.3317
ltibia 33.3189
lfoot -18.3458 22.3778
ltoes -5.95421
310
root -1.60771 15.1953 -0.659889 183.487 81.0215 -175.292
lowerback 5.70357 2.85113 3.21564
upperback 5.02304 4.08362 -0.356074
thorax 2.24182 2.21436 -2.3004
lowerneck -7.2597 0.523177 5.75648
upperneck 13.8666 0.355358 -1.53256
head 5.38733 0.43245 -1.39424
rclavicle -4.36084e-015 1.87852e-014
rhumerus -30.9495 6.06165 -92.6646
rradius 25.3015
rwrist -10.9249
rhand -13.7818 1.63906
rfingers 7.12502
rthumb 12.3395 -27.9768
lclavicle -4.36084e-015 1.87852e-014
lhumerus -34.6088 16.042 73.4325
lradius 20.9032
lwrist -12.0032
lhand -17.038 11.1016
lfingers 7.12502
lthumb 9.19867 40.881
rfemur 19.2963 11.0363 34.1133
rtibia 7.95139e-015
rfoot -17.1967 -15.829
rtoes -28.549
lfemur -29.2567 -13.822 -19.352
ltibia 33.0406
lfoot -19.3221 23.2387
ltoes -3.41547
311
root -1.45072 15.1732 -0.686688 187.706 81.6309 -170.59
lowerback 5.92912 2.90805 3.54659
upperback 5.08409 4.18369 -0.292785
thorax 2.20733 2.27574 -2.43311
lowerneck -7.03485 0.575745 5.78577
upperneck 13.4631 0.427346 -1.51937
head 5.22654 0.460524 -1.38909
rclavicle 1.60674e-014 -4.63417e-015
rhumerus -31.3688 6.19889 -92.8615
rradius 25.65
rwrist -11.3126
rhand -13.8995 1.50054
rfingers 7.12502
rthumb 12.226 -28.1221
lclavicle 1.60674e-014 -4.63417e-015
lhumerus -34.3541 15.042 74.0129
lradius 21.5083
lwrist -10.8792
lhand -17.2708 11.0328
lfingers 7.12502
lthumb 8.97407 40.822
rfemur 20.4073 10.5178 34.768
rtibia -2.8625e-014
rfoot -17.0478 -14.9753
rtoes -27.4521
lfemur -28.7218 -14.3259 -18.7868
ltibia 33.0297
lfoot -20.2514 23.3018
ltoes -0.368425
312
root -1.28932 15.1486 -0.716023 191.7 82.2165 -166.171
lowerback 6.07904 2.94568 3.76976
upperback 5.13436 4.25139 -0.277676
thorax 2.19769 2.3183 -2.55061
lowerneck -6.96891 0.657886 5.84189
upperneck 13.2178 0.548495 -1.66656
head 5.14402 0.505834 -1.43585
rclavicle -7.10655e-015 2.98177e-016
rhumerus -31.72 6.2724 -93.0106
rradius 25.9327
rwrist -11.4953
rhand -13.8375 1.08535
rfingers 7.12502
rthumb 12.2858 -28.5337
lclavicle -7.10655e-015 2.98177e-016
lhumerus -34.0077 14.1272 74.6126
lradius 22.0045
lwrist -10.0083
lhand -17.8241 11.0943
lfingers 7.12502
lthumb 8.44004 40.9056
rfemur 21.462 10.0191 35.2428
rtibia -4.77083e-014
rfoot -16.6604 -14.2685
rtoes -27.5028
lfemur -27.9464 -14.3034 -18.5605
ltibia 33.0909
lfoot -20.2463 22.8689
ltoes -1.62626
313
root -1.12641 15.1273 -0.754824 190.162 82.7602 -167.848
lowerback 5.72197 2.98754 3.35547
upperback 5.03756 4.27413 -0.602681
thorax 2.29033 2.31963 -2.63689
lowerneck -6.95964 0.713125 5.93696
upperneck 13.0384 0.616621 -1.743
head 5.0901 0.533563 -1.47044
rclavicle -3.26752e-014 1.2921e-014
rhumerus -32.0579 6.2872 -93.2424
rradius 26.0736
rwrist -11.7813
rhand -14.116 1.26422
rfingers 7.12502
rthumb 12.0172 -28.3708
lclavicle -3.26752e-014 1.2921e-014
lhumerus -33.6833 12.8016 75.3089
lradius 22.6849
lwrist -9.02008
lhand -18.569 11.4174
lfingers 7.12502
lthumb 7.7212 41.2564
rfemur 22.0337 9.51094 34.6367
rtibia 1.27222e-014
rfoot -16.3303 -13.451
rtoes -27.651
lfemur -27.4059 -14.3337 -19.2399
ltibia 33.1264
lfoot -19.0944 22.2672
ltoes -4.50208
314
root -0.9614 15.1135 -0.805745 183.26 83.1933 -175.252
lowerback 5.02967 2.98854 2.48702
upperback 4.83449 4.22247 -1.15758
thorax 2.4375 2.27129 -2.68849
lowerneck -6.81453 0.794778 5.95465
upperneck 12.7885 0.718096 -1.65342
head 4.99245 0.584494 -1.43854
rclavicle -3.69739e-014 1.09332e-014
rhumerus -32.3398 6.35895 -93.4535
rradius 26.0817
rwrist -12.0642
rhand -14.4099 1.85058
rfingers 7.12502
rthumb 11.7338 -27.8008
lclavicle -3.69739e-014 1.09332e-014
lhumerus -33.4477 11.1535 76.0922
lradius 23.4434
lwrist -7.89347
lhand -19.0886 11.7696
lfingers 7.12502
lthumb 7.21965 41.6264
rfemur 22.3283 8.96362 33.1838
rtibia 2.8625e-014
rfoot -15.9461 -12.5281
rtoes -28.2472
lfemur -27.0071 -14.5923 -20.5916
ltibia 33.1511
lfoot -18.6756 21.2879
ltoes -4.55358
315
root -0.793815 15.1074 -0.855651 182.117 83.7576 -176.576
lowerback 4.70869 2.99633 2.33062
upperback 4.64858 4.21749 -1.45032
thorax 2.43429 2.263 -2.88961
lowerneck -6.75394 0.905796 5.99496
upperneck 12.6807 0.870944 -1.70127
head 4.95524 0.655441 -1.4503
rclavicle -1.10822e-014 5.1684e-015
rhumerus -32.6923 6.49356 -93.5749
rradius 26.2528
rwrist -12.3007
rhand -14.3243 1.84387
rfingers 7.12502
rthumb 11.8164 -27.8028
lclavicle -1.10822e-014 5.1684e-015
lhumerus -32.9608 9.60786 76.9044
lradius 23.5909
lwrist -6.91571
lhand -19.5978 12.096
lfingers 7.12502
lthumb 6.72813 41.9691
rfemur 22.8308 8.57548 32.5656
rtibia 2.22639e-014
rfoot -15.2221 -11.5264
rtoes -29.3939
lfemur -26.3939 -14.7992 -21.0498
ltibia 33.1555
lfoot -18.1438 20.829
ltoes -6.75299
316
root -0.622198 15.1078 -0.897307 183.557 84.4213 -175.032
lowerback 4.70791 3.02808 2.30897
upperback 4.52611 4.25646 -1.59162
thorax 2.32008 2.27943 -3.02816
lowerneck -6.87772 0.988307 5.98342
upperneck 12.7471 0.987248 -1.80217
head 5.00139 0.705139 -1.47232
rclavicle 2.72832e-014 1.98785e-015
rhumerus -33.0375 6.5065 -93.5938
rradius 26.4688
rwrist -12.4599
rhand -14.167 1.4608
rfingers 7.12502
rthumb 11.9681 -28.1771
lclavicle 2.72832e-014 1.98785e-015
lhumerus -32.3336 8.08504 77.7732
lradius 23.4494
lwrist -6.21037
lhand -20.4309 12.7688
lfingers 7.12502
lthumb 5.92384 42.6659
rfemur 23.5693 8.24357 32.2921
rtibia -2.54444e-014
rfoot -14.354 -10.2803
rtoes -29.8114
lfemur -25.7083 -15.2477 -21.0302
ltibia 33.2118
lfoot -17.8121 21.1482
ltoes -5.49838
317
root -0.446955 15.1135 -0.936506 180.116 84.9716 -178.357
lowerback 4.66814 3.05125 1.79907
upperback 4.46566 4.27636 -1.85075
thorax 2.26269 2.27856 -3.01124
lowerneck -6.86353 1.0405 5.84936
upperneck 12.6068 1.06032 -1.72594
head 4.9574 0.735582 -1.4219
rclavicle -1.51076e-014 -1.11319e-014
rhumerus -33.0897 6.29401 -93.5168
rradius 26.3256
rwrist -12.5023
rhand -14.2929 1.44863
rfingers 7.12502
rthumb 11.8467 -28.1963
lclavicle -1.51076e-014 -1.11319e-014
lhumerus -31.6916 6.75529 78.5558
lradius 23.2958
lwrist -6.1838
lhand -21.0985 13.0891
lfingers 7.12502
lthumb 5.27925 43.0034
rfemur 24.3653 7.80542 31.4915
rtibia 2.54444e-014
rfoot -13.3043 -8.99524
rtoes -29.7179
lfemur -25.0267 -15.8969 -21.4494
ltibia 33.3588
lfoot -18.1317 21.4705
ltoes -1.21731
318
root -0.268363 15.1251 -0.977035 178.039 85.483 -180.417
lowerback 4.48148 3.04631 1.45538
upperback 4.38628 4.26044 -2.07916
thorax 2.27561 2.26367 -3.046
lowerneck -6.64164 1.1322 5.8029
upperneck 12.2605 1.18657 -1.63786
head 4.81746 0.794115 -1.37944
rclavicle -4.67144e-015 -1.59028e-015
rhumerus -33.0217 6.24077 -93.5001
rradius 26.0338
rwrist -12.808
rhand -14.6926 1.44517
rfingers 7.12502
rthumb 11.4612 -28.2215
lclavicle -4.67144e-015 -1.59028e-015
lhumerus -31.0678 5.61779 79.2679
lradius 23.1448
lwrist -6.54223
lhand -21.1367 12.3373
lfingers 7.12502
lthumb 5.24232 42.2524
rfemur 24.9873 7.37916 30.8036
rtibia 1.59028e-014
rfoot -11.9151 -7.81139
rtoes -29.5786
lfemur -24.3229 -16.0355 -21.7979
ltibia 33.497
lfoot -18.2619 21.4207
ltoes 1.25158
